<svg data-v-423bf9ae="" xmlns="http://www.w3.org/2000/svg" viewBox="0 0 343 90" class="iconLeftSlogan"><!----><!----><!----><g data-v-423bf9ae="" id="4f0b55e6-ab47-4874-bfe9-a8ea737d75b3" fill="#1F4F00" transform="matrix(4.487658656230888,0,0,4.487658656230888,72.05013537567456,-10.366491715944619)"><path d="M1.43 9.44L0.42 10.04C0.74 10.86 1.20 11.52 1.82 12.00C2.44 12.49 3.14 12.74 3.92 12.74C4.87 12.74 5.61 12.49 6.13 11.98C6.64 11.47 6.90 10.79 6.90 9.94C6.90 8.62 6.08 7.66 4.42 7.06C4.04 6.92 3.75 6.80 3.55 6.71C3.35 6.61 3.12 6.49 2.87 6.33C2.62 6.17 2.44 5.99 2.32 5.80C2.21 5.60 2.16 5.38 2.16 5.12C2.16 4.24 2.69 3.79 3.77 3.79C4.25 3.79 4.65 3.94 4.96 4.23C5.26 4.52 5.55 4.91 5.81 5.40L6.78 4.76C6.55 4.20 6.17 3.71 5.64 3.29C5.11 2.87 4.48 2.66 3.75 2.66C2.95 2.66 2.27 2.89 1.73 3.35C1.18 3.80 0.91 4.37 0.91 5.04C0.91 6.34 1.73 7.28 3.37 7.87C3.72 7.99 4.00 8.10 4.22 8.21C4.44 8.32 4.68 8.46 4.93 8.62C5.18 8.79 5.37 8.99 5.49 9.23C5.61 9.47 5.67 9.74 5.67 10.04C5.67 10.53 5.53 10.92 5.24 11.20C4.96 11.48 4.54 11.62 3.99 11.62C3.41 11.62 2.92 11.43 2.51 11.06C2.10 10.69 1.74 10.15 1.43 9.44ZM7.60 6.16L10.40 13.09L12.24 8.40L14.18 13.09L16.98 6.16L15.72 6.16L14.10 10.37L12.22 5.67L10.47 10.35L8.86 6.16ZM22.55 8.71L18.72 8.71C18.77 8.19 18.99 7.78 19.37 7.47C19.75 7.16 20.20 7.00 20.73 7.00C21.28 7.00 21.70 7.15 22.01 7.46C22.32 7.77 22.50 8.19 22.55 8.71ZM18.69 9.66L23.76 9.66C23.77 9.59 23.77 9.47 23.77 9.32C23.77 8.32 23.49 7.51 22.94 6.92C22.38 6.32 21.65 6.02 20.73 6.02C19.79 6.02 19.02 6.33 18.43 6.96C17.84 7.59 17.54 8.40 17.54 9.38C17.54 10.35 17.83 11.15 18.41 11.79C18.99 12.42 19.72 12.74 20.59 12.74C21.37 12.74 21.98 12.60 22.44 12.33C22.90 12.06 23.31 11.65 23.66 11.10L22.75 10.53C22.27 11.30 21.60 11.69 20.73 11.69C20.15 11.69 19.67 11.51 19.31 11.16C18.94 10.80 18.74 10.30 18.69 9.66ZM25.82 7.67C26.43 7.22 27.07 7.00 27.73 7.00C28.11 7.00 28.43 7.09 28.69 7.26C28.96 7.43 29.09 7.67 29.09 7.98L29.09 8.95C28.67 8.71 28.16 8.60 27.57 8.60C26.80 8.60 26.13 8.78 25.55 9.13C24.97 9.49 24.68 10.00 24.68 10.64C24.68 11.33 24.91 11.85 25.38 12.21C25.84 12.56 26.34 12.74 26.89 12.74C27.39 12.74 27.83 12.65 28.22 12.46C28.60 12.27 28.90 12.01 29.09 11.68L29.09 12.60L30.21 12.60L30.21 7.98C30.21 7.36 29.99 6.88 29.53 6.54C29.08 6.19 28.48 6.02 27.73 6.02C26.82 6.02 26.00 6.29 25.27 6.82ZM25.82 10.64C25.82 9.85 26.42 9.45 27.62 9.45C28.15 9.45 28.64 9.53 29.09 9.70L29.09 10.08C29.09 11.19 28.50 11.75 27.31 11.75C26.32 11.75 25.82 11.38 25.82 10.64ZM32.17 3.92L32.17 6.16L31.12 6.16L31.12 7.21L32.17 7.21L32.17 12.60L33.29 12.60L33.29 7.21L34.34 7.21L34.34 6.16L33.29 6.16L33.29 3.92ZM43.41 5.98L44.14 12.60L45.33 12.60L44.14 2.31L40.22 9.41L36.30 2.31L35.11 12.60L36.30 12.60L37.03 5.98L40.22 11.69ZM47.59 7.67C48.20 7.22 48.84 7.00 49.50 7.00C49.88 7.00 50.20 7.09 50.46 7.26C50.73 7.43 50.86 7.67 50.86 7.98L50.86 8.95C50.44 8.71 49.93 8.60 49.34 8.60C48.57 8.60 47.90 8.78 47.32 9.13C46.74 9.49 46.45 10.00 46.45 10.64C46.45 11.33 46.68 11.85 47.14 12.21C47.61 12.56 48.11 12.74 48.66 12.74C49.16 12.74 49.60 12.65 49.99 12.46C50.37 12.27 50.67 12.01 50.86 11.68L50.86 12.60L51.98 12.60L51.98 7.98C51.98 7.36 51.76 6.88 51.30 6.54C50.85 6.19 50.25 6.02 49.50 6.02C48.59 6.02 47.77 6.29 47.04 6.82ZM47.59 10.64C47.59 9.85 48.19 9.45 49.39 9.45C49.92 9.45 50.41 9.53 50.86 9.70L50.86 10.08C50.86 11.19 50.27 11.75 49.08 11.75C48.09 11.75 47.59 11.38 47.59 10.64ZM60.31 9.38C60.31 8.36 60.01 7.55 59.39 6.94C58.78 6.33 58.03 6.02 57.12 6.02C56.15 6.02 55.42 6.44 54.92 7.27L54.92 6.16L53.80 6.16L53.80 15.68L54.92 15.68L54.92 11.49C55.42 12.32 56.15 12.74 57.12 12.74C58.03 12.74 58.78 12.43 59.39 11.82C60.01 11.21 60.31 10.40 60.31 9.38ZM59.18 9.38C59.18 10.10 58.97 10.66 58.55 11.07C58.13 11.48 57.61 11.69 56.98 11.69C56.45 11.69 55.97 11.48 55.55 11.06C55.13 10.64 54.92 10.08 54.92 9.38C54.92 8.68 55.13 8.12 55.55 7.70C55.97 7.28 56.45 7.07 56.98 7.07C57.61 7.07 58.13 7.28 58.55 7.69C58.97 8.10 59.18 8.66 59.18 9.38Z"></path></g><defs data-v-423bf9ae=""><linearGradient data-v-423bf9ae="" gradientTransform="rotate(25)" id="2d80ee69-fb9f-4d65-b4a6-bc74829e866e" x1="0%" y1="0%" x2="100%" y2="0%"><stop data-v-423bf9ae="" offset="0%" style="stop-color: rgb(255, 166, 0); stop-opacity: 1;"></stop><stop data-v-423bf9ae="" offset="100%" style="stop-color: rgb(0, 150, 21); stop-opacity: 1;"></stop></linearGradient></defs><g data-v-423bf9ae="" id="4961f436-ad57-4985-a761-343b1ffc1f7e" transform="matrix(1.0539709258457626,0,0,1.0539709258457626,-24.25218336971058,-9.52214962222746)" stroke="none" fill="url(#2d80ee69-fb9f-4d65-b4a6-bc74829e866e)"><path d="M72.232 35.262c0 12.623-10.223 22.854-22.841 22.854-12.623 0-22.857-10.23-22.857-22.854 0-12.614 10.235-22.849 22.857-22.849 12.619 0 22.841 10.235 22.841 22.849zM26.269 46.209l23.123 48.857 23.124-48.857c6.035-12.77.59-28.025-12.181-34.071-12.774-6.041-28.029-.59-34.066 12.185a25.52 25.52 0 0 0 0 21.886z"></path><path d="M66.904 38.144a6.069 6.069 0 0 1-6.072 6.062 6.065 6.065 0 0 1 0-12.129 6.066 6.066 0 0 1 6.072 6.067zm1.586 0a7.66 7.66 0 0 0-7.658-7.662 7.66 7.66 0 1 0 7.658 7.662zM44.835 38.144a6.065 6.065 0 1 1-12.13-.006 6.065 6.065 0 0 1 12.13.006zm1.587 0c0-4.232-3.426-7.662-7.645-7.662a7.66 7.66 0 0 0-7.666 7.662 7.656 7.656 0 0 0 7.666 7.657c4.219 0 7.645-3.426 7.645-7.657z"></path><path d="M44.055 37.435h-4.746l.649-4.489a5.322 5.322 0 0 0-.961-.135l-.811 5.599h5.906a4.97 4.97 0 0 0-.037-.975zM50.684 38.409h-3.528a7.749 7.749 0 0 0-.025-.975h1.464L46.54 34.98a8.434 8.434 0 0 0-3.299-3.941l-2.56-3.05-.283 1.924a8.256 8.256 0 0 0-.957-.136l.401-2.792-2.067-2.464h-1.772a1.185 1.185 0 0 1 0-2.371h3.505a1.186 1.186 0 0 1 0 2.371h-.468l1.864 2.211h10.218l-1.198-1.426a2.192 2.192 0 0 1-.51-1.392 2.16 2.16 0 0 1 2.163-2.16h5.168a2.23 2.23 0 0 1 2.232 2.223 2.232 2.232 0 0 1-2.232 2.232v-.974c.697 0 1.254-.562 1.254-1.258 0-.687-.557-1.252-1.254-1.252h-5.168a1.19 1.19 0 0 0-1.188 1.189c0 .278.097.553.274.768l5.463 6.514a8.553 8.553 0 0 0-.768.59l-3.16-3.763-1.514 10.386m-8.97-10.706l8.133 9.707 1.413-9.707h-9.546zM58.104 33.558l3.544 4.228-.748.623-3.577-4.277c.239-.215.497-.405.781-.574z"></path></g><!----><g data-v-423bf9ae="" id="d1758acb-29e5-4ddf-bb89-950821597bef" fill="#C67800" transform="matrix(1.0751711052853716,0,0,1.0751711052853716,73.78441957337233,58.193713836749296)"><path d="M0.14 3.92L2.66 3.92L2.66 12.60L3.85 12.60L3.85 3.92L6.37 3.92L6.37 2.80L0.14 2.80ZM9.51 7.39L10.12 6.47C9.83 6.17 9.43 6.02 8.92 6.02C8.40 6.02 7.95 6.31 7.56 6.90L7.56 6.16L6.44 6.16L6.44 12.60L7.56 12.60L7.56 8.68C7.56 7.61 7.92 7.07 8.64 7.07C8.92 7.07 9.21 7.18 9.51 7.39ZM11.75 7.67C12.36 7.22 13.00 7.00 13.66 7.00C14.04 7.00 14.36 7.09 14.62 7.26C14.89 7.43 15.02 7.67 15.02 7.98L15.02 8.95C14.60 8.71 14.09 8.60 13.50 8.60C12.73 8.60 12.06 8.78 11.48 9.13C10.90 9.49 10.61 10.00 10.61 10.64C10.61 11.33 10.84 11.85 11.30 12.21C11.77 12.56 12.27 12.74 12.82 12.74C13.32 12.74 13.76 12.65 14.15 12.46C14.53 12.27 14.83 12.01 15.02 11.68L15.02 12.60L16.14 12.60L16.14 7.98C16.14 7.36 15.92 6.88 15.46 6.54C15.01 6.19 14.41 6.02 13.66 6.02C12.75 6.02 11.93 6.29 11.20 6.82ZM11.75 10.64C11.75 9.85 12.35 9.45 13.55 9.45C14.08 9.45 14.57 9.53 15.02 9.70L15.02 10.08C15.02 11.19 14.43 11.75 13.24 11.75C12.25 11.75 11.75 11.38 11.75 10.64ZM18.54 9.38C18.54 8.71 18.74 8.15 19.16 7.72C19.57 7.29 20.10 7.07 20.73 7.07C21.24 7.07 21.70 7.18 22.12 7.40C22.54 7.62 22.82 7.89 22.97 8.20L22.97 6.85C22.75 6.59 22.43 6.39 22.02 6.24C21.61 6.09 21.18 6.02 20.73 6.02C19.78 6.02 18.99 6.34 18.35 6.97C17.72 7.61 17.40 8.41 17.40 9.38C17.40 10.35 17.72 11.15 18.35 11.79C18.99 12.42 19.78 12.74 20.73 12.74C21.19 12.74 21.63 12.67 22.04 12.52C22.45 12.38 22.76 12.18 22.97 11.91L22.97 10.56C22.82 10.87 22.54 11.14 22.12 11.36C21.70 11.58 21.24 11.69 20.73 11.69C20.10 11.69 19.57 11.47 19.16 11.04C18.74 10.61 18.54 10.05 18.54 9.38ZM24.65 1.68L24.65 12.60L25.77 12.60L25.77 9.34L28.43 12.60L29.83 12.60L26.75 8.82L29.55 6.16L28.15 6.16L25.77 8.43L25.77 1.68ZM34.03 6.16L36.50 11.69L34.73 15.68L35.99 15.68L40.19 6.16L38.93 6.16L37.14 10.63L35.36 6.16ZM40.68 9.38C40.68 10.35 41.00 11.15 41.64 11.79C42.27 12.42 43.06 12.74 44.02 12.74C44.97 12.74 45.76 12.42 46.40 11.79C47.03 11.15 47.35 10.35 47.35 9.38C47.35 8.41 47.03 7.61 46.40 6.97C45.76 6.34 44.97 6.02 44.02 6.02C43.06 6.02 42.27 6.34 41.64 6.97C41.00 7.61 40.68 8.41 40.68 9.38ZM41.82 9.38C41.82 8.71 42.03 8.15 42.44 7.72C42.86 7.29 43.38 7.07 44.02 7.07C44.65 7.07 45.18 7.29 45.59 7.72C46.01 8.15 46.21 8.71 46.21 9.38C46.21 10.05 46.01 10.61 45.59 11.04C45.18 11.47 44.65 11.69 44.02 11.69C43.38 11.69 42.86 11.47 42.44 11.04C42.03 10.61 41.82 10.05 41.82 9.38ZM53.02 10.08C53.02 10.55 52.87 10.93 52.56 11.23C52.26 11.54 51.87 11.69 51.38 11.69C50.47 11.69 50.01 11.15 50.01 10.08L50.01 6.16L48.89 6.16L48.89 10.22C48.89 11.03 49.09 11.65 49.48 12.09C49.88 12.52 50.42 12.74 51.10 12.74C51.90 12.74 52.54 12.40 53.02 11.73L53.02 12.60L54.14 12.60L54.14 6.16L53.02 6.16ZM59.30 7.39L59.92 6.47C59.63 6.17 59.23 6.02 58.72 6.02C58.20 6.02 57.75 6.31 57.36 6.90L57.36 6.16L56.24 6.16L56.24 12.60L57.36 12.60L57.36 8.68C57.36 7.61 57.72 7.07 58.44 7.07C58.72 7.07 59.01 7.18 59.30 7.39ZM66.36 8.68C66.36 8.20 66.49 7.82 66.75 7.52C67.01 7.22 67.38 7.07 67.86 7.07C68.30 7.07 68.61 7.20 68.80 7.46C68.99 7.72 69.09 8.13 69.09 8.68L69.09 12.60L70.21 12.60L70.21 8.68C70.21 8.20 70.34 7.82 70.60 7.52C70.86 7.22 71.23 7.07 71.71 7.07C72.15 7.07 72.46 7.20 72.65 7.46C72.84 7.72 72.94 8.13 72.94 8.68L72.94 12.60L74.06 12.60L74.06 8.54C74.06 7.71 73.88 7.08 73.53 6.66C73.17 6.23 72.66 6.02 71.99 6.02C71.58 6.02 71.19 6.12 70.84 6.33C70.49 6.53 70.20 6.81 69.99 7.17C69.68 6.40 69.06 6.02 68.14 6.02C67.39 6.02 66.80 6.33 66.36 6.96L66.36 6.16L65.24 6.16L65.24 12.60L66.36 12.60ZM76.16 3.50C76.16 3.71 76.24 3.88 76.39 4.04C76.55 4.19 76.72 4.27 76.93 4.27C77.14 4.27 77.31 4.19 77.47 4.04C77.62 3.88 77.70 3.71 77.70 3.50C77.70 3.29 77.62 3.12 77.47 2.96C77.31 2.81 77.14 2.73 76.93 2.73C76.72 2.73 76.55 2.81 76.39 2.96C76.24 3.12 76.16 3.29 76.16 3.50ZM76.37 6.16L76.37 12.60L77.49 12.60L77.49 6.16ZM79.80 1.68L79.80 12.60L80.92 12.60L80.92 1.68ZM87.47 8.71L83.64 8.71C83.69 8.19 83.91 7.78 84.29 7.47C84.66 7.16 85.12 7.00 85.65 7.00C86.19 7.00 86.62 7.15 86.93 7.46C87.23 7.77 87.42 8.19 87.47 8.71ZM83.61 9.66L88.68 9.66C88.69 9.59 88.69 9.47 88.69 9.32C88.69 8.32 88.41 7.51 87.86 6.92C87.30 6.32 86.57 6.02 85.65 6.02C84.71 6.02 83.94 6.33 83.35 6.96C82.76 7.59 82.46 8.40 82.46 9.38C82.46 10.35 82.75 11.15 83.33 11.79C83.91 12.42 84.63 12.74 85.51 12.74C86.29 12.74 86.90 12.60 87.36 12.33C87.82 12.06 88.22 11.65 88.58 11.10L87.67 10.53C87.19 11.30 86.52 11.69 85.65 11.69C85.06 11.69 84.59 11.51 84.22 11.16C83.86 10.80 83.65 10.30 83.61 9.66ZM90.52 10.35L89.60 10.88C89.69 11.40 89.99 11.84 90.48 12.20C90.98 12.56 91.52 12.74 92.12 12.74C92.85 12.74 93.42 12.58 93.84 12.26C94.26 11.93 94.47 11.44 94.47 10.78C94.47 10.01 93.88 9.37 92.69 8.88C92.38 8.75 92.13 8.64 91.94 8.55C91.76 8.46 91.58 8.34 91.40 8.18C91.22 8.03 91.13 7.87 91.13 7.71C91.13 7.29 91.45 7.08 92.11 7.08C92.39 7.08 92.66 7.15 92.92 7.28C93.19 7.41 93.39 7.60 93.52 7.85L94.42 7.28C94.29 6.93 94.01 6.63 93.55 6.38C93.09 6.14 92.61 6.02 92.09 6.02C91.54 6.02 91.06 6.18 90.64 6.49C90.22 6.80 90.01 7.21 90.01 7.71C90.01 7.97 90.06 8.19 90.16 8.40C90.26 8.61 90.41 8.78 90.61 8.93C90.82 9.08 91.00 9.20 91.18 9.29C91.36 9.38 91.58 9.48 91.85 9.59C92.10 9.68 92.28 9.76 92.41 9.82C92.53 9.88 92.68 9.97 92.84 10.07C93.00 10.18 93.12 10.30 93.20 10.43C93.27 10.56 93.31 10.71 93.31 10.88C93.31 11.42 92.94 11.69 92.19 11.69C91.79 11.69 91.43 11.56 91.12 11.31C90.81 11.06 90.61 10.74 90.52 10.35ZM96.96 11.06L95.73 14.69L96.54 14.98L98.08 11.48ZM104.96 9.38C104.96 8.71 105.17 8.15 105.58 7.72C106.00 7.29 106.52 7.07 107.16 7.07C107.66 7.07 108.12 7.18 108.54 7.40C108.96 7.62 109.25 7.89 109.40 8.20L109.40 6.85C109.17 6.59 108.85 6.39 108.44 6.24C108.03 6.09 107.60 6.02 107.16 6.02C106.20 6.02 105.41 6.34 104.78 6.97C104.14 7.61 103.82 8.41 103.82 9.38C103.82 10.35 104.14 11.15 104.78 11.79C105.41 12.42 106.20 12.74 107.16 12.74C107.61 12.74 108.05 12.67 108.46 12.52C108.87 12.38 109.18 12.18 109.40 11.91L109.40 10.56C109.25 10.87 108.96 11.14 108.54 11.36C108.12 11.58 107.66 11.69 107.16 11.69C106.52 11.69 106.00 11.47 105.58 11.04C105.17 10.61 104.96 10.05 104.96 9.38ZM110.59 9.38C110.59 10.35 110.90 11.15 111.54 11.79C112.17 12.42 112.97 12.74 113.92 12.74C114.87 12.74 115.66 12.42 116.30 11.79C116.93 11.15 117.25 10.35 117.25 9.38C117.25 8.41 116.93 7.61 116.30 6.97C115.66 6.34 114.87 6.02 113.92 6.02C112.97 6.02 112.17 6.34 111.54 6.97C110.90 7.61 110.59 8.41 110.59 9.38ZM111.72 9.38C111.72 8.71 111.93 8.15 112.34 7.72C112.76 7.29 113.28 7.07 113.92 7.07C114.55 7.07 115.08 7.29 115.49 7.72C115.91 8.15 116.12 8.71 116.12 9.38C116.12 10.05 115.91 10.61 115.49 11.04C115.08 11.47 114.55 11.69 113.92 11.69C113.28 11.69 112.76 11.47 112.34 11.04C111.93 10.61 111.72 10.05 111.72 9.38ZM119.91 8.68C119.91 8.21 120.06 7.83 120.37 7.52C120.67 7.22 121.06 7.07 121.55 7.07C122.46 7.07 122.92 7.61 122.92 8.68L122.92 12.60L124.04 12.60L124.04 8.54C124.04 7.73 123.84 7.10 123.45 6.67C123.05 6.24 122.51 6.02 121.83 6.02C121.03 6.02 120.39 6.36 119.91 7.03L119.91 6.16L118.79 6.16L118.79 12.60L119.91 12.60ZM125.58 9.38C125.58 10.40 125.89 11.21 126.50 11.82C127.11 12.43 127.87 12.74 128.77 12.74C129.74 12.74 130.48 12.32 130.97 11.49L130.97 15.68L132.09 15.68L132.09 6.16L130.97 6.16L130.97 7.27C130.48 6.44 129.74 6.02 128.77 6.02C127.87 6.02 127.11 6.33 126.50 6.94C125.89 7.55 125.58 8.36 125.58 9.38ZM126.71 9.38C126.71 8.66 126.92 8.10 127.34 7.69C127.76 7.28 128.29 7.07 128.91 7.07C129.44 7.07 129.92 7.28 130.34 7.70C130.76 8.12 130.97 8.68 130.97 9.38C130.97 10.08 130.76 10.64 130.34 11.06C129.92 11.48 129.44 11.69 128.91 11.69C128.29 11.69 127.76 11.48 127.34 11.07C126.92 10.66 126.71 10.10 126.71 9.38ZM138.25 10.08C138.25 10.55 138.10 10.93 137.79 11.23C137.49 11.54 137.10 11.69 136.61 11.69C135.70 11.69 135.24 11.15 135.24 10.08L135.24 6.16L134.12 6.16L134.12 10.22C134.12 11.03 134.32 11.65 134.72 12.09C135.11 12.52 135.65 12.74 136.33 12.74C137.13 12.74 137.77 12.40 138.25 11.73L138.25 12.60L139.37 12.60L139.37 6.16L138.25 6.16ZM145.92 8.71L142.09 8.71C142.14 8.19 142.36 7.78 142.74 7.47C143.11 7.16 143.57 7.00 144.10 7.00C144.64 7.00 145.07 7.15 145.38 7.46C145.68 7.77 145.87 8.19 145.92 8.71ZM142.06 9.66L147.13 9.66C147.14 9.59 147.14 9.47 147.14 9.32C147.14 8.32 146.86 7.51 146.31 6.92C145.75 6.32 145.02 6.02 144.10 6.02C143.16 6.02 142.39 6.33 141.80 6.96C141.21 7.59 140.91 8.40 140.91 9.38C140.91 10.35 141.20 11.15 141.78 11.79C142.36 12.42 143.08 12.74 143.96 12.74C144.74 12.74 145.35 12.60 145.81 12.33C146.27 12.06 146.67 11.65 147.03 11.10L146.12 10.53C145.64 11.30 144.97 11.69 144.10 11.69C143.51 11.69 143.04 11.51 142.67 11.16C142.31 10.80 142.10 10.30 142.06 9.66ZM151.75 7.39L152.36 6.47C152.07 6.17 151.67 6.02 151.16 6.02C150.64 6.02 150.19 6.31 149.80 6.90L149.80 6.16L148.68 6.16L148.68 12.60L149.80 12.60L149.80 8.68C149.80 7.61 150.16 7.07 150.88 7.07C151.16 7.07 151.45 7.18 151.75 7.39ZM157.12 9.38C157.12 10.40 157.43 11.21 158.04 11.82C158.65 12.43 159.41 12.74 160.31 12.74C161.28 12.74 162.02 12.32 162.51 11.49L162.51 15.68L163.63 15.68L163.63 6.16L162.51 6.16L162.51 7.27C162.02 6.44 161.28 6.02 160.31 6.02C159.41 6.02 158.65 6.33 158.04 6.94C157.43 7.55 157.12 8.36 157.12 9.38ZM158.26 9.38C158.26 8.66 158.47 8.10 158.89 7.69C159.31 7.28 159.83 7.07 160.45 7.07C160.99 7.07 161.46 7.28 161.88 7.70C162.30 8.12 162.51 8.68 162.51 9.38C162.51 10.08 162.30 10.64 161.88 11.06C161.46 11.48 160.99 11.69 160.45 11.69C159.83 11.69 159.31 11.48 158.89 11.07C158.47 10.66 158.26 10.10 158.26 9.38ZM169.79 10.08C169.79 10.55 169.64 10.93 169.34 11.23C169.03 11.54 168.64 11.69 168.15 11.69C167.24 11.69 166.78 11.15 166.78 10.08L166.78 6.16L165.66 6.16L165.66 10.22C165.66 11.03 165.86 11.65 166.26 12.09C166.65 12.52 167.19 12.74 167.87 12.74C168.68 12.74 169.32 12.40 169.79 11.73L169.79 12.60L170.91 12.60L170.91 6.16L169.79 6.16ZM173.01 3.50C173.01 3.71 173.09 3.88 173.24 4.04C173.40 4.19 173.58 4.27 173.78 4.27C173.99 4.27 174.17 4.19 174.32 4.04C174.47 3.88 174.55 3.71 174.55 3.50C174.55 3.29 174.47 3.12 174.32 2.96C174.17 2.81 173.99 2.73 173.78 2.73C173.58 2.73 173.40 2.81 173.24 2.96C173.09 3.12 173.01 3.29 173.01 3.50ZM173.22 6.16L173.22 12.60L174.34 12.60L174.34 6.16ZM177.16 9.38C177.16 8.71 177.36 8.15 177.78 7.72C178.19 7.29 178.72 7.07 179.35 7.07C179.86 7.07 180.32 7.18 180.74 7.40C181.16 7.62 181.44 7.89 181.59 8.20L181.59 6.85C181.37 6.59 181.05 6.39 180.64 6.24C180.23 6.09 179.80 6.02 179.35 6.02C178.40 6.02 177.61 6.34 176.97 6.97C176.34 7.61 176.02 8.41 176.02 9.38C176.02 10.35 176.34 11.15 176.97 11.79C177.61 12.42 178.40 12.74 179.35 12.74C179.81 12.74 180.25 12.67 180.66 12.52C181.07 12.38 181.38 12.18 181.59 11.91L181.59 10.56C181.44 10.87 181.16 11.14 180.74 11.36C180.32 11.58 179.86 11.69 179.35 11.69C178.72 11.69 178.19 11.47 177.78 11.04C177.36 10.61 177.16 10.05 177.16 9.38ZM183.27 1.68L183.27 12.60L184.39 12.60L184.39 9.34L187.05 12.60L188.45 12.60L185.37 8.82L188.17 6.16L186.77 6.16L184.39 8.43L184.39 1.68ZM193.68 8.71L189.84 8.71C189.90 8.19 190.11 7.78 190.49 7.47C190.87 7.16 191.32 7.00 191.86 7.00C192.40 7.00 192.82 7.15 193.13 7.46C193.44 7.77 193.62 8.19 193.68 8.71ZM189.81 9.66L194.88 9.66C194.89 9.59 194.89 9.47 194.89 9.32C194.89 8.32 194.62 7.51 194.06 6.92C193.51 6.32 192.77 6.02 191.86 6.02C190.91 6.02 190.15 6.33 189.55 6.96C188.96 7.59 188.66 8.40 188.66 9.38C188.66 10.35 188.95 11.15 189.53 11.79C190.11 12.42 190.84 12.74 191.72 12.74C192.49 12.74 193.11 12.60 193.56 12.33C194.02 12.06 194.43 11.65 194.78 11.10L193.87 10.53C193.40 11.30 192.72 11.69 191.86 11.69C191.27 11.69 190.79 11.51 190.43 11.16C190.06 10.80 189.86 10.30 189.81 9.66ZM199.50 7.39L200.12 6.47C199.83 6.17 199.43 6.02 198.91 6.02C198.40 6.02 197.95 6.31 197.55 6.90L197.55 6.16L196.43 6.16L196.43 12.60L197.55 12.60L197.55 8.68C197.55 7.61 197.91 7.07 198.63 7.07C198.91 7.07 199.20 7.18 199.50 7.39Z"></path></g></svg>