<svg data-v-423bf9ae="" xmlns="http://www.w3.org/2000/svg" viewBox="0 0 268.76589130167764 60" class="font"><!----><!----><!----><g data-v-423bf9ae="" id="e211e7a2-63e4-4c70-9cfc-35a99f7dbb0d" fill="white" transform="matrix(4.487658656230888,0,0,4.487658656230888,-1.8848164065520052,-10.366491715944619)"><path d="M1.43 9.44L0.42 10.04C0.74 10.86 1.20 11.52 1.82 12.00C2.44 12.49 3.14 12.74 3.92 12.74C4.87 12.74 5.61 12.49 6.13 11.98C6.64 11.47 6.90 10.79 6.90 9.94C6.90 8.62 6.08 7.66 4.42 7.06C4.04 6.92 3.75 6.80 3.55 6.71C3.35 6.61 3.12 6.49 2.87 6.33C2.62 6.17 2.44 5.99 2.32 5.80C2.21 5.60 2.16 5.38 2.16 5.12C2.16 4.24 2.69 3.79 3.77 3.79C4.25 3.79 4.65 3.94 4.96 4.23C5.26 4.52 5.55 4.91 5.81 5.40L6.78 4.76C6.55 4.20 6.17 3.71 5.64 3.29C5.11 2.87 4.48 2.66 3.75 2.66C2.95 2.66 2.27 2.89 1.73 3.35C1.18 3.80 0.91 4.37 0.91 5.04C0.91 6.34 1.73 7.28 3.37 7.87C3.72 7.99 4.00 8.10 4.22 8.21C4.44 8.32 4.68 8.46 4.93 8.62C5.18 8.79 5.37 8.99 5.49 9.23C5.61 9.47 5.67 9.74 5.67 10.04C5.67 10.53 5.53 10.92 5.24 11.20C4.96 11.48 4.54 11.62 3.99 11.62C3.41 11.62 2.92 11.43 2.51 11.06C2.10 10.69 1.74 10.15 1.43 9.44ZM7.60 6.16L10.40 13.09L12.24 8.40L14.18 13.09L16.98 6.16L15.72 6.16L14.10 10.37L12.22 5.67L10.47 10.35L8.86 6.16ZM22.55 8.71L18.72 8.71C18.77 8.19 18.99 7.78 19.37 7.47C19.75 7.16 20.20 7.00 20.73 7.00C21.28 7.00 21.70 7.15 22.01 7.46C22.32 7.77 22.50 8.19 22.55 8.71ZM18.69 9.66L23.76 9.66C23.77 9.59 23.77 9.47 23.77 9.32C23.77 8.32 23.49 7.51 22.94 6.92C22.38 6.32 21.65 6.02 20.73 6.02C19.79 6.02 19.02 6.33 18.43 6.96C17.84 7.59 17.54 8.40 17.54 9.38C17.54 10.35 17.83 11.15 18.41 11.79C18.99 12.42 19.72 12.74 20.59 12.74C21.37 12.74 21.98 12.60 22.44 12.33C22.90 12.06 23.31 11.65 23.66 11.10L22.75 10.53C22.27 11.30 21.60 11.69 20.73 11.69C20.15 11.69 19.67 11.51 19.31 11.16C18.94 10.80 18.74 10.30 18.69 9.66ZM25.82 7.67C26.43 7.22 27.07 7.00 27.73 7.00C28.11 7.00 28.43 7.09 28.69 7.26C28.96 7.43 29.09 7.67 29.09 7.98L29.09 8.95C28.67 8.71 28.16 8.60 27.57 8.60C26.80 8.60 26.13 8.78 25.55 9.13C24.97 9.49 24.68 10.00 24.68 10.64C24.68 11.33 24.91 11.85 25.38 12.21C25.84 12.56 26.34 12.74 26.89 12.74C27.39 12.74 27.83 12.65 28.22 12.46C28.60 12.27 28.90 12.01 29.09 11.68L29.09 12.60L30.21 12.60L30.21 7.98C30.21 7.36 29.99 6.88 29.53 6.54C29.08 6.19 28.48 6.02 27.73 6.02C26.82 6.02 26.00 6.29 25.27 6.82ZM25.82 10.64C25.82 9.85 26.42 9.45 27.62 9.45C28.15 9.45 28.64 9.53 29.09 9.70L29.09 10.08C29.09 11.19 28.50 11.75 27.31 11.75C26.32 11.75 25.82 11.38 25.82 10.64ZM32.17 3.92L32.17 6.16L31.12 6.16L31.12 7.21L32.17 7.21L32.17 12.60L33.29 12.60L33.29 7.21L34.34 7.21L34.34 6.16L33.29 6.16L33.29 3.92ZM43.41 5.98L44.14 12.60L45.33 12.60L44.14 2.31L40.22 9.41L36.30 2.31L35.11 12.60L36.30 12.60L37.03 5.98L40.22 11.69ZM47.59 7.67C48.20 7.22 48.84 7.00 49.50 7.00C49.88 7.00 50.20 7.09 50.46 7.26C50.73 7.43 50.86 7.67 50.86 7.98L50.86 8.95C50.44 8.71 49.93 8.60 49.34 8.60C48.57 8.60 47.90 8.78 47.32 9.13C46.74 9.49 46.45 10.00 46.45 10.64C46.45 11.33 46.68 11.85 47.14 12.21C47.61 12.56 48.11 12.74 48.66 12.74C49.16 12.74 49.60 12.65 49.99 12.46C50.37 12.27 50.67 12.01 50.86 11.68L50.86 12.60L51.98 12.60L51.98 7.98C51.98 7.36 51.76 6.88 51.30 6.54C50.85 6.19 50.25 6.02 49.50 6.02C48.59 6.02 47.77 6.29 47.04 6.82ZM47.59 10.64C47.59 9.85 48.19 9.45 49.39 9.45C49.92 9.45 50.41 9.53 50.86 9.70L50.86 10.08C50.86 11.19 50.27 11.75 49.08 11.75C48.09 11.75 47.59 11.38 47.59 10.64ZM60.31 9.38C60.31 8.36 60.01 7.55 59.39 6.94C58.78 6.33 58.03 6.02 57.12 6.02C56.15 6.02 55.42 6.44 54.92 7.27L54.92 6.16L53.80 6.16L53.80 15.68L54.92 15.68L54.92 11.49C55.42 12.32 56.15 12.74 57.12 12.74C58.03 12.74 58.78 12.43 59.39 11.82C60.01 11.21 60.31 10.40 60.31 9.38ZM59.18 9.38C59.18 10.10 58.97 10.66 58.55 11.07C58.13 11.48 57.61 11.69 56.98 11.69C56.45 11.69 55.97 11.48 55.55 11.06C55.13 10.64 54.92 10.08 54.92 9.38C54.92 8.68 55.13 8.12 55.55 7.70C55.97 7.28 56.45 7.07 56.98 7.07C57.61 7.07 58.13 7.28 58.55 7.69C58.97 8.10 59.18 8.66 59.18 9.38Z"></path></g><!----><!----></svg>