<?xml version="1.0" standalone="no"?>
<!DOCTYPE svg PUBLIC "-//W3C//DTD SVG 20010904//EN"
 "http://www.w3.org/TR/2001/REC-SVG-20010904/DTD/svg10.dtd">
<svg version="1.0" xmlns="http://www.w3.org/2000/svg"
 width="611.000000pt" height="611.000000pt" viewBox="0 0 611.000000 611.000000"
 preserveAspectRatio="xMidYMid meet">
<metadata>
Created by potrace 1.14, written by Peter Selinger 2001-2017
</metadata>
<g transform="translate(0.000000,611.000000) scale(0.100000,-0.100000)"
fill="#000000" stroke="none">
<path d="M2876 5913 c-2 -2 -21 -6 -42 -8 -69 -9 -167 -25 -175 -31 -3 -2 -21
-6 -40 -9 -64 -11 -214 -67 -334 -125 -243 -117 -457 -293 -615 -505 -25 -33
-47 -62 -51 -65 -19 -17 -122 -208 -167 -310 -49 -112 -99 -298 -119 -440 -8
-59 -8 -382 0 -435 4 -27 10 -66 13 -85 22 -151 81 -320 191 -550 65 -134 123
-257 183 -385 21 -44 63 -134 95 -200 31 -66 90 -190 130 -275 40 -85 98 -209
130 -275 31 -66 75 -158 97 -205 22 -47 67 -141 99 -209 33 -67 59 -124 59
-126 0 -1 38 -81 84 -176 46 -96 95 -199 109 -229 13 -30 48 -103 76 -162 28
-60 74 -156 102 -215 28 -60 64 -135 79 -168 30 -64 87 -185 195 -410 l67
-140 15 35 c9 19 17 37 18 40 2 5 30 65 154 324 39 82 71 150 71 151 0 2 32
70 71 152 39 81 86 180 104 218 18 39 56 120 85 180 29 61 69 146 90 190 20
44 61 130 90 190 29 61 65 137 80 170 15 33 56 119 90 190 249 521 290 610
290 624 0 6 5 11 10 11 6 0 10 5 10 11 0 5 23 58 51 117 28 59 72 150 96 202
96 204 113 239 173 365 66 137 136 307 144 346 3 13 11 47 20 74 15 50 17 58
31 145 4 25 9 54 12 65 3 16 14 220 15 270 0 22 -13 152 -17 175 -3 14 -7 43
-11 65 -30 211 -138 482 -270 676 -241 354 -596 601 -1020 709 -44 11 -101 23
-125 26 -24 3 -57 8 -74 10 -34 6 -364 12 -369 7z m307 -187 c43 -3 81 -7 85
-10 4 -2 30 -7 57 -10 66 -9 191 -46 289 -85 73 -29 235 -111 260 -132 6 -5
40 -30 76 -56 595 -433 794 -1245 468 -1911 -23 -48 -45 -89 -48 -92 -3 -3
-14 -21 -24 -40 -54 -98 -200 -268 -305 -356 -97 -81 -100 -84 -110 -84 -5 0
-11 -4 -13 -9 -5 -13 -104 -74 -196 -120 -75 -38 -260 -106 -316 -117 -11 -2
-43 -8 -71 -14 -90 -18 -148 -23 -295 -24 -276 0 -457 43 -705 169 -141 72
-254 154 -371 270 -95 94 -214 241 -214 264 0 6 -4 11 -9 11 -11 0 -122 226
-149 305 -23 64 -62 203 -60 214 0 3 -1 8 -2 11 -2 6 -7 44 -19 154 -60 558
231 1136 727 1444 130 81 374 176 502 196 19 3 46 8 60 11 14 3 66 8 115 12
50 3 91 6 92 7 3 3 80 -1 176 -8z"/>
<path d="M3118 5087 c-25 -13 -44 -32 -57 -61 -34 -69 -25 -110 38 -186 20
-25 41 -51 45 -57 6 -10 -64 -13 -333 -13 l-340 0 -61 72 -61 73 31 6 c62 13
88 60 63 112 -20 40 -48 47 -198 47 -151 0 -171 -8 -182 -72 -5 -31 -1 -40 22
-62 25 -23 37 -26 100 -26 80 0 65 10 166 -110 l46 -55 -9 -65 c-17 -123 -17
-125 20 -128 25 -3 32 0 32 15 1 28 12 98 16 102 2 2 5 2 7 0 35 -47 167 -199
186 -213 74 -55 151 -145 184 -216 10 -19 47 -71 84 -115 l67 -80 -47 -5 c-26
-3 -47 -8 -47 -12 0 -5 0 -18 0 -31 0 -23 1 -24 114 -23 63 1 117 4 119 6 3 3
8 23 11 45 3 22 8 51 11 65 2 14 7 48 10 75 3 28 10 77 15 110 5 33 12 78 15
100 4 22 10 67 15 100 5 33 12 78 15 100 6 49 13 87 17 91 2 1 28 -27 58 -64
156 -191 144 -179 174 -163 14 8 26 17 26 20 0 3 -44 58 -98 122 -53 63 -115
137 -137 164 -22 26 -63 76 -91 109 -29 34 -54 70 -56 81 -6 26 17 71 41 85
12 6 100 10 218 10 223 -1 235 -4 248 -73 6 -32 3 -40 -23 -67 -17 -16 -37
-30 -46 -30 -10 0 -14 -9 -13 -27 2 -33 16 -46 34 -31 7 6 13 7 13 4 0 -4 14
1 31 11 96 56 95 201 -1 257 -31 19 -53 20 -244 21 -185 0 -215 -2 -248 -18z
m36 -417 c0 -41 -10 -120 -29 -245 -8 -49 -17 -109 -20 -132 -5 -44 -25 -177
-30 -203 -2 -8 -4 -19 -4 -25 -1 -9 -14 4 -65 67 -23 28 -117 138 -131 154 -5
6 -26 30 -45 54 -19 24 -40 48 -45 54 -26 29 -255 306 -255 308 0 2 141 3 313
3 l312 0 -1 -35z"/>
<path d="M2200 4504 c-30 -8 -79 -27 -109 -42 -55 -27 -174 -135 -201 -182
-113 -199 -104 -415 26 -586 97 -127 217 -190 379 -200 157 -10 287 39 397
150 91 92 143 213 148 347 1 24 1 46 0 49 -1 3 -3 21 -6 41 -13 106 -89 244
-172 312 -56 46 -123 82 -207 112 -39 14 -199 13 -255 -1z m230 -107 c22 -6
71 -26 100 -40 40 -19 133 -118 158 -167 32 -63 37 -92 37 -201 0 -88 -2 -100
-33 -161 -38 -73 -86 -128 -151 -169 -250 -160 -589 5 -617 301 -3 30 -8 58
-10 62 -3 4 -2 8 3 8 4 0 9 18 9 40 3 59 55 162 112 219 86 85 182 122 302
116 41 -2 82 -5 90 -8z"/>
<path d="M2339 4343 c0 -10 -2 -25 -4 -33 -4 -19 -11 -70 -21 -135 -3 -27 -8
-59 -11 -70 -2 -11 -6 -43 -9 -71 l-5 -50 198 0 198 1 2 28 c1 17 -4 30 -13
34 -9 3 -82 6 -162 7 -92 1 -146 5 -145 11 0 6 4 35 7 65 4 30 9 66 11 80 4
24 16 110 17 120 2 23 -6 30 -32 30 -22 0 -30 -5 -31 -17z"/>
<path d="M3725 4514 c-203 -52 -329 -156 -395 -324 -75 -190 -29 -403 119
-550 109 -107 240 -157 386 -146 101 7 112 9 159 29 21 10 40 17 43 17 30 0
203 159 203 187 0 7 4 13 9 13 7 0 53 98 56 120 1 3 5 30 10 60 13 79 12 107
-2 180 -30 150 -102 255 -236 341 -52 34 -78 45 -157 66 -18 5 -181 11 -195 7z
m142 -108 c102 -9 228 -91 288 -186 80 -127 79 -311 -2 -434 -92 -141 -265
-215 -423 -181 -135 29 -253 135 -301 269 -20 57 -26 157 -14 219 19 94 124
231 210 272 44 21 164 54 180 49 6 -2 34 -6 62 -8z"/>
<path d="M3594 4291 l-22 -17 43 -52 c23 -28 49 -57 56 -65 8 -9 24 -28 36
-44 12 -15 42 -50 67 -78 l45 -50 22 22 22 22 -69 83 c-38 46 -71 85 -74 88
-3 3 -25 29 -49 58 -23 28 -46 52 -49 52 -4 -1 -17 -9 -28 -19z"/>
</g>
</svg>
